#!OML:ASF H:\Dans Jumps\Project 1\Capture day 1\Session 1\subject.ASF
:FULLY-SPECIFIED
:DEGREES
346
root 0.401575 16.8851 -2.68314 8.54785 -0.268558 -1.15669
lowerback 5.61872 -1.03919 -0.946868
upperback 5.94503 -1.46112 2.47403
thorax 3.08013 -0.82238 3.12742
lowerneck -12.9285 0.843543 -0.53514
upperneck 30.8989 1.59558 -0.864721
head 12.3442 0.524971 -0.0109139
rclavicle 5.96354e-016 6.36111e-015
rhumerus -17.8928 -13.3621 -82.3373
rradius 23.1061
rwrist 32.2788
rhand -22.1597 -23.8961
rfingers 7.12502
rthumb 4.25457 -53.8334
lclavicle 5.96354e-016 6.36111e-015
lhumerus -15.0135 -8.4213 91.8997
lradius 16.1279
lwrist 4.82605
lhand -27.7428 -6.22393
lfingers 7.12502
lthumb -1.13747 23.7528
rfemur -30.4521 -3.60702 20.3646
rtibia 46.5307
rfoot -20.6637 -9.69413
rtoes 4.7591
lfemur -31.5764 6.95916 -17.8235
ltibia 43.4723
lfoot -19.5138 -0.275171
ltoes -1.82931
347
root 0.404885 16.8864 -2.68153 8.54645 -0.22044 -1.16304
lowerback 5.5881 -1.03053 -0.934467
upperback 5.95672 -1.44932 2.46714
thorax 3.10809 -0.816198 3.11227
lowerneck -12.9543 0.834851 -0.527701
upperneck 30.917 1.58641 -0.877347
head 12.3571 0.52013 -0.0180964
rclavicle 3.97569e-016 -5.56597e-015
rhumerus -17.9437 -13.492 -82.3431
rradius 23.0666
rwrist 32.357
rhand -22.1019 -23.9274
rfingers 7.12502
rthumb 4.3104 -53.8636
lclavicle 3.97569e-016 -5.56597e-015
lhumerus -15.1145 -8.37402 91.8649
lradius 16.0761
lwrist 4.72197
lhand -27.6031 -6.06963
lfingers 7.12502
lthumb -1.00255 23.9078
rfemur -30.4217 -3.6395 20.3617
rtibia 46.4984
rfoot -20.6583 -9.71687
rtoes 4.76982
lfemur -31.5691 6.95094 -17.8344
ltibia 43.4504
lfoot -19.514 -0.248816
ltoes -1.98807
348
root 0.408134 16.8875 -2.68027 8.54732 -0.166882 -1.16674
lowerback 5.55589 -1.02248 -0.922643
upperback 5.96675 -1.43829 2.45883
thorax 3.13524 -0.810351 3.09598
lowerneck -12.9756 0.825803 -0.52009
upperneck 30.9415 1.57628 -0.888499
head 12.3718 0.515041 -0.0249151
rclavicle -1.25234e-014 -7.95139e-015
rhumerus -17.9926 -13.6465 -82.3448
rradius 23.0154
rwrist 32.4544
rhand -22.0405 -23.9542
rfingers 7.12502
rthumb 4.36964 -53.8892
lclavicle -1.25234e-014 -7.95139e-015
lhumerus -15.2045 -8.29603 91.8247
lradius 16.0237
lwrist 4.60722
lhand -27.4824 -5.94492
lfingers 7.12502
lthumb -0.886006 24.033
rfemur -30.396 -3.67871 20.3571
rtibia 46.4696
rfoot -20.6563 -9.73735
rtoes 4.78215
lfemur -31.5682 6.93212 -17.8473
ltibia 43.4325
lfoot -19.5154 -0.207141
ltoes -2.18689
349
root 0.411275 16.8883 -2.67942 8.55187 -0.109902 -1.17894
lowerback 5.52251 -1.01557 -0.90391
upperback 5.97481 -1.42863 2.45442
thorax 3.16101 -0.804979 3.07989
lowerneck -13.002 0.816512 -0.508093
upperneck 30.9778 1.56733 -0.907443
head 12.3924 0.509863 -0.0352681
rclavicle -6.95746e-015 6.36111e-015
rhumerus -18.0439 -13.7952 -82.344
rradius 22.9668
rwrist 32.5493
rhand -21.9747 -23.9812
rfingers 7.12502
rthumb 4.43317 -53.9148
lclavicle -6.95746e-015 6.36111e-015
lhumerus -15.285 -8.17676 91.7805
lradius 15.9725
lwrist 4.48008
lhand -27.3605 -5.81571
lfingers 7.12502
lthumb -0.768311 24.1627
rfemur -30.3763 -3.71717 20.363
rtibia 46.4418
rfoot -20.6538 -9.75908
rtoes 4.80678
lfemur -31.5761 6.9064 -17.8491
ltibia 43.4193
lfoot -19.5173 -0.157624
ltoes -2.40447
350
root 0.414216 16.8888 -2.67901 8.55846 -0.052548 -1.19964
lowerback 5.49168 -1.00898 -0.880194
upperback 5.98135 -1.41928 2.45313
thorax 3.18375 -0.799596 3.06431
lowerneck -13.0246 0.80649 -0.500608
upperneck 31.0186 1.55747 -0.923087
head 12.4141 0.504157 -0.0437459
rclavicle 9.93923e-016 1.15295e-014
rhumerus -18.1003 -13.9267 -82.344
rradius 22.9277
rwrist 32.6395
rhand -21.908 -24.0111
rfingers 7.12502
rthumb 4.49765 -53.9434
lclavicle 9.93923e-016 1.15295e-014
lhumerus -15.3546 -8.02307 91.7312
lradius 15.9229
lwrist 4.34876
lhand -27.2426 -5.6987
lfingers 7.12502
lthumb -0.654433 24.28
rfemur -30.36 -3.75058 20.3793
rtibia 46.413
rfoot -20.6487 -9.78374
rtoes 4.83038
lfemur -31.5907 6.87734 -17.8392
ltibia 43.4113
lfoot -19.5203 -0.109383
ltoes -2.61303
351
root 0.417344 16.8895 -2.67829 8.55654 -0.00417504 -1.22315
lowerback 5.46446 -1.00093 -0.855378
upperback 5.99186 -1.40807 2.45251
thorax 3.20853 -0.79332 3.04882
lowerneck -13.05 0.793038 -0.500472
upperneck 31.0663 1.5435 -0.934867
head 12.439 0.496186 -0.0500652
rclavicle 7.7526e-015 7.95139e-015
rhumerus -18.1638 -14.0265 -82.3465
rradius 22.9037
rwrist 32.7111
rhand -21.8253 -24.0527
rfingers 7.12502
rthumb 4.57743 -53.9832
lclavicle 7.7526e-015 7.95139e-015
lhumerus -15.4101 -7.84469 91.6787
lradius 15.8721
lwrist 4.22337
lhand -27.1985 -5.66098
lfingers 7.12502
lthumb -0.611785 24.3179
rfemur -30.3322 -3.77744 20.3958
rtibia 46.3813
rfoot -20.6455 -9.80371
rtoes 4.85897
lfemur -31.5927 6.84919 -17.8248
ltibia 43.4054
lfoot -19.5283 -0.0596902
ltoes -2.79761
352
root 0.42035 16.8901 -2.6778 8.55422 0.0390656 -1.25453
lowerback 5.43998 -0.991923 -0.827278
upperback 6.00193 -1.39556 2.45475
thorax 3.23124 -0.786306 3.03449
lowerneck -13.0722 0.777865 -0.506723
upperneck 31.1159 1.52717 -0.941829
head 12.464 0.487037 -0.053809
rclavicle 1.45113e-014 -2.14687e-014
rhumerus -18.229 -14.1119 -82.35
rradius 22.8807
rwrist 32.7807
rhand -21.7493 -24.097
rfingers 7.12502
rthumb 4.65084 -54.0259
lclavicle 1.45113e-014 -2.14687e-014
lhumerus -15.4538 -7.64485 91.6236
lradius 15.8207
lwrist 4.10353
lhand -27.1571 -5.63429
lfingers 7.12502
lthumb -0.571861 24.3447
rfemur -30.3046 -3.79574 20.4208
rtibia 46.3471
rfoot -20.6394 -9.82481
rtoes 4.8904
lfemur -31.5942 6.82503 -17.8005
ltibia 43.3993
lfoot -19.5365 -0.0161697
ltoes -2.96109
353
root 0.423387 16.891 -2.6772 8.54769 0.074347 -1.28006
lowerback 5.41674 -0.981781 -0.808727
upperback 6.0128 -1.38182 2.45568
thorax 3.25428 -0.779028 3.02418
lowerneck -13.0859 0.763971 -0.516455
upperneck 31.1634 1.51273 -0.946518
head 12.4864 0.47865 -0.0558657
rclavicle 2.3059e-014 -4.77083e-015
rhumerus -18.2961 -14.1914 -82.3527
rradius 22.8533
rwrist 32.8544
rhand -21.6751 -24.1348
rfingers 7.12502
rthumb 4.72249 -54.0621
lclavicle 2.3059e-014 -4.77083e-015
lhumerus -15.4864 -7.42398 91.5658
lradius 15.7652
lwrist 3.9809
lhand -27.1264 -5.62701
lfingers 7.12502
lthumb -0.542151 24.352
rfemur -30.2717 -3.81118 20.4379
rtibia 46.311
rfoot -20.6334 -9.84161
rtoes 4.92635
lfemur -31.5861 6.80641 -17.7831
ltibia 43.3885
lfoot -19.5457 0.0267967
ltoes -3.11304
354
root 0.426415 16.8921 -2.67661 8.5373 0.10573 -1.29737
lowerback 5.3939 -0.971162 -0.800906
upperback 6.02594 -1.36776 2.45464
thorax 3.27968 -0.772 3.01788
lowerneck -13.0895 0.75023 -0.530232
upperneck 31.2042 1.49819 -0.947574
head 12.5037 0.470307 -0.0559023
rclavicle -2.18663e-015 1.74931e-014
rhumerus -18.3578 -14.279 -82.354
rradius 22.8153
rwrist 32.9385
rhand -21.6081 -24.1706
rfingers 7.12502
rthumb 4.78717 -54.0966
lclavicle -2.18663e-015 1.74931e-014
lhumerus -15.5052 -7.19382 91.5064
lradius 15.7062
lwrist 3.85991
lhand -27.149 -5.69019
lfingers 7.12502
lthumb -0.563985 24.2888
rfemur -30.2349 -3.82611 20.4453
rtibia 46.2747
rfoot -20.6257 -9.85879
rtoes 4.95336
lfemur -31.5696 6.79065 -17.7749
ltibia 43.3727
lfoot -19.5562 0.0713415
ltoes -3.26302
355
root 0.429394 16.8934 -2.67595 8.52423 0.132108 -1.30821
lowerback 5.36914 -0.958711 -0.801843
upperback 6.04056 -1.35151 2.45176
thorax 3.30777 -0.764216 3.01451
lowerneck -13.0899 0.737421 -0.53472
upperneck 31.2452 1.48506 -0.95678
head 12.5207 0.462646 -0.0604816
rclavicle -1.51076e-014 -4.77083e-015
rhumerus -18.4195 -14.3733 -82.3526
rradius 22.7721
rwrist 33.0239
rhand -21.5521 -24.2022
rfingers 7.12502
rthumb 4.8413 -54.1269
lclavicle -1.51076e-014 -4.77083e-015
lhumerus -15.512 -6.96186 91.4475
lradius 15.6444
lwrist 3.74119
lhand -27.2425 -5.84228
lfingers 7.12502
lthumb -0.654255 24.1365
rfemur -30.196 -3.83891 20.4451
rtibia 46.2396
rfoot -20.6157 -9.87751
rtoes 4.96802
lfemur -31.5455 6.78025 -17.7746
ltibia 43.3515
lfoot -19.5696 0.122565
ltoes -3.42829
356
root 0.43228 16.8947 -2.67536 8.50974 0.15512 -1.31595
lowerback 5.34326 -0.945149 -0.80742
upperback 6.05653 -1.33392 2.44759
thorax 3.33793 -0.755942 3.01236
lowerneck -13.0897 0.727354 -0.540451
upperneck 31.2875 1.47472 -0.961236
head 12.538 0.456669 -0.0626434
rclavicle -1.59028e-015 1.15295e-014
rhumerus -18.4769 -14.474 -82.3501
rradius 22.7235
rwrist 33.1134
rhand -21.5137 -24.2226
rfingers 7.12502
rthumb 4.87832 -54.1464
lclavicle -1.59028e-015 1.15295e-014
lhumerus -15.5078 -6.72971 91.3885
lradius 15.5812
lwrist 3.6166
lhand -27.4048 -6.10324
lfingers 7.12502
lthumb -0.811088 23.875
rfemur -30.1568 -3.84688 20.4413
rtibia 46.206
rfoot -20.6041 -9.89931
rtoes 4.97508
lfemur -31.518 6.77407 -17.7776
ltibia 43.3274
lfoot -19.5846 0.181967
ltoes -3.61548
